<svg width="32" height="32" viewBox="0 0 32 32" fill="none" xmlns="http://www.w3.org/2000/svg">
<rect width="32" height="32" rx="16" fill="#E5E5E5"/>
<path d="M16.7611 11.5103C16.1535 11.8042 16.2769 12.7038 16.9411 12.8233L18.3244 13.0723C18.7235 13.1441 19.0299 13.4664 19.0815 13.8686L19.2822 15.4354C19.3688 16.1111 20.2736 16.2739 20.5903 15.6709L21.3248 14.2724C21.5133 13.9134 21.9128 13.7181 22.3119 13.79L23.6952 14.0389C24.3594 14.1585 24.7887 13.3584 24.3218 12.8711L23.2124 11.7132C22.9214 11.4095 22.8707 10.9482 23.0889 10.5886L23.8653 9.30864C24.2254 8.7151 23.5908 8.01761 22.966 8.32002L21.6814 8.9417C21.3189 9.11718 20.8844 9.039 20.6058 8.74809L19.6186 7.71754C19.1384 7.21623 18.3005 7.64872 18.431 8.33054L18.7124 9.80091C18.7915 10.214 18.5832 10.6287 18.2045 10.8119L16.7611 11.5103Z" stroke="#585858" stroke-width="1.25" stroke-linecap="round"/>
<path d="M15.6381 15.0304L7.75454 22.9139C7.39172 23.2768 7.39172 23.865 7.75454 24.2279C8.11738 24.5907 8.70563 24.5907 9.06847 24.2279L16.952 16.3444C17.3148 15.9815 17.3148 15.3933 16.952 15.0304C16.5892 14.6675 16.0009 14.6675 15.6381 15.0304Z" stroke="#585858" stroke-width="1.25" stroke-linecap="round"/>
</svg>
