<svg width="92" height="80" viewBox="0 0 92 80" fill="none" xmlns="http://www.w3.org/2000/svg">
<g clip-path="url(#clip0_188_17315)">
<path d="M46.0216 11.082H7.92641C4.10106 11.082 1 14.1831 1 18.0084V56.1037C1 59.929 4.10106 63.0301 7.92641 63.0301H46.0216C49.847 63.0301 52.9481 59.929 52.9481 56.1037V18.0084C52.9481 14.1831 49.847 11.082 46.0216 11.082Z" fill="white" fill-opacity="0.08"/>
<path d="M45.8485 11.2559H7.75325C4.02353 11.2559 1 14.2794 1 18.0091V56.1043C1 59.8341 4.02353 62.8576 7.75325 62.8576H45.8485C49.5782 62.8576 52.6017 59.8341 52.6017 56.1043V18.0091C52.6017 14.2794 49.5782 11.2559 45.8485 11.2559Z" stroke="#B1B1B1" stroke-opacity="0.4" stroke-width="0.5"/>
<path d="M65.0216 5.54102H26.9264C23.1011 5.54102 20 8.64207 20 12.4674V50.5627C20 54.388 23.1011 57.4891 26.9264 57.4891H65.0216C68.847 57.4891 71.9481 54.388 71.9481 50.5627V12.4674C71.9481 8.64207 68.847 5.54102 65.0216 5.54102Z" fill="white" fill-opacity="0.08"/>
<path d="M65.0216 5.71484H26.9263C23.1966 5.71484 20.1731 8.73838 20.1731 12.4681V50.5633C20.1731 54.293 23.1966 57.3166 26.9263 57.3166H65.0216C68.7513 57.3166 71.7748 54.293 71.7748 50.5633V12.4681C71.7748 8.73838 68.7513 5.71484 65.0216 5.71484Z" stroke="#B1B1B1" stroke-opacity="0.4" stroke-width="0.5"/>
<path d="M84.0216 0H45.9264C42.1011 0 39 3.10106 39 6.92641V45.0216C39 48.847 42.1011 51.9481 45.9264 51.9481H84.0216C87.847 51.9481 90.9481 48.847 90.9481 45.0216V6.92641C90.9481 3.10106 87.847 0 84.0216 0Z" fill="white" fill-opacity="0.08"/>
<path d="M83.8485 0.173828H45.7532C42.0235 0.173828 39 3.19736 39 6.92707V45.0223C39 48.752 42.0235 51.7756 45.7532 51.7756H83.8485C87.5782 51.7756 90.6017 48.752 90.6017 45.0223V6.92707C90.6017 3.19736 87.5782 0.173828 83.8485 0.173828Z" stroke="#B1B1B1" stroke-opacity="0.4" stroke-width="0.5"/>
<path d="M3.84294 67.4643C4.99147 67.4643 5.82955 67.7117 6.35713 68.207C6.88474 68.6981 7.14855 69.3758 7.14855 70.2402C7.14855 70.6298 7.08969 71.0032 6.97199 71.3604C6.85429 71.7135 6.66153 72.0279 6.39367 72.304C6.12988 72.58 5.77679 72.799 5.33442 72.9614C4.89204 73.1197 4.34619 73.1988 3.69684 73.1988H2.88718V76.3644H1V67.4643H3.84294ZM3.74553 69.0105H2.88718V71.6525H3.50811C3.8612 71.6525 4.16761 71.606 4.42735 71.5124C4.68709 71.4191 4.88799 71.2731 5.03004 71.0742C5.17208 70.8754 5.24311 70.6196 5.24311 70.3072C5.24311 69.8688 5.12134 69.5441 4.87784 69.3332C4.63433 69.118 4.25689 69.0105 3.74553 69.0105ZM11.4221 67.4643C12.2297 67.4643 12.8953 67.5616 13.4188 67.7564C13.9464 67.9512 14.3381 68.2454 14.5938 68.6392C14.8494 69.0328 14.9773 69.5299 14.9773 70.1306C14.9773 70.5365 14.9002 70.8917 14.7459 71.1959C14.5917 71.5003 14.3888 71.758 14.1372 71.9691C13.8856 72.1802 13.6136 72.3526 13.3214 72.4865L15.9391 76.3644H13.845L11.7204 72.9492H10.7159V76.3644H8.82874V67.4643H11.4221ZM11.2881 69.0105H10.7159V71.4151H11.3247C11.9497 71.4151 12.3961 71.3116 12.664 71.1047C12.9359 70.8936 13.0718 70.5852 13.0718 70.1793C13.0718 69.7573 12.9257 69.4569 12.6335 69.2783C12.3454 69.0998 11.8969 69.0105 11.2881 69.0105ZM25.1375 71.9021C25.1375 72.5879 25.0523 73.213 24.8819 73.7772C24.7114 74.3372 24.4516 74.8201 24.1027 75.226C23.7578 75.6319 23.3194 75.9443 22.7878 76.1635C22.2561 76.3786 21.6271 76.4861 20.9007 76.4861C20.1741 76.4861 19.545 76.3786 19.0134 76.1635C18.4818 75.9443 18.0414 75.6319 17.6923 75.226C17.3474 74.8201 17.0897 74.3351 16.9192 73.771C16.7488 73.207 16.6636 72.58 16.6636 71.8899C16.6636 70.9687 16.8137 70.1672 17.114 69.4853C17.4184 68.7994 17.8851 68.2678 18.5142 67.8903C19.1432 67.513 19.9427 67.3242 20.9128 67.3242C21.8787 67.3242 22.6721 67.513 23.293 67.8903C23.918 68.2678 24.3807 68.7994 24.6811 69.4853C24.9853 70.1711 25.1375 70.9769 25.1375 71.9021ZM18.6421 71.9021C18.6421 72.523 18.7192 73.0588 18.8735 73.5093C19.0317 73.9557 19.2773 74.3007 19.6099 74.5441C19.9427 74.7836 20.373 74.9033 20.9007 74.9033C21.4362 74.9033 21.8705 74.7836 22.2033 74.5441C22.5361 74.3007 22.7775 73.9557 22.9278 73.5093C23.0819 73.0588 23.1592 72.523 23.1592 71.9021C23.1592 70.9687 22.9846 70.2342 22.6355 69.6984C22.2865 69.1627 21.7123 68.8948 20.9128 68.8948C20.3812 68.8948 19.9469 69.0165 19.6099 69.2601C19.2773 69.4995 19.0317 69.8446 18.8735 70.295C18.7192 70.7414 18.6421 71.2771 18.6421 71.9021ZM26.0508 78.9821C25.8071 78.9821 25.5942 78.9679 25.4115 78.9395C25.2248 78.915 25.0665 78.8847 24.9367 78.8482V77.2775C25.0665 77.306 25.2066 77.3324 25.3568 77.3566C25.5029 77.3852 25.6591 77.3994 25.8255 77.3994C26.0447 77.3994 26.2414 77.3566 26.416 77.2714C26.5905 77.1904 26.7285 77.034 26.83 76.8027C26.9315 76.5713 26.9822 76.2385 26.9822 75.8044V67.4643H28.8693V75.7921C28.8693 76.5552 28.7497 77.1699 28.5102 77.6368C28.2747 78.1074 27.9439 78.4484 27.5178 78.6595C27.0958 78.8745 26.6068 78.9821 26.0508 78.9821ZM36.2354 76.3644H31.1097V67.4643H36.2354V69.0105H32.9968V70.9646H36.0101V72.5109H32.9968V74.806H36.2354V76.3644ZM41.8787 68.9071C41.5174 68.9071 41.1968 68.9781 40.9168 69.1201C40.6409 69.2581 40.4075 69.4589 40.2167 69.7228C40.03 69.9866 39.888 70.3052 39.7905 70.6785C39.6932 71.0518 39.6445 71.4719 39.6445 71.9386C39.6445 72.5677 39.7216 73.1055 39.8759 73.5519C40.0342 73.9942 40.2776 74.3332 40.6063 74.5685C40.9351 74.7999 41.3592 74.9156 41.8787 74.9156C42.2399 74.9156 42.6011 74.8749 42.9623 74.7938C43.3275 74.7126 43.7232 74.5969 44.1493 74.4468V76.0295C43.7557 76.1919 43.3682 76.3076 42.9865 76.3765C42.6051 76.4496 42.177 76.4861 41.702 76.4861C40.785 76.4861 40.03 76.2974 39.4375 75.9201C38.849 75.5384 38.4127 75.0068 38.1287 74.3251C37.8445 73.6392 37.7026 72.8397 37.7026 71.9265C37.7026 71.2527 37.7938 70.6359 37.9765 70.0759C38.159 69.5157 38.4269 69.0307 38.78 68.6208C39.1332 68.211 39.5694 67.8944 40.0889 67.6712C40.6084 67.448 41.2049 67.3363 41.8787 67.3363C42.3211 67.3363 42.7633 67.3931 43.2058 67.5069C43.6522 67.6163 44.0783 67.7685 44.4842 67.9634L43.8754 69.4976C43.5426 69.3393 43.2078 69.2013 42.8709 69.0835C42.5341 68.9658 42.2033 68.9071 41.8787 68.9071ZM49.4821 76.3644H47.595V69.0349H45.1782V67.4643H51.8989V69.0349H49.4821V76.3644ZM58.364 76.3644H56.5072V67.4643H61.6087V69.0105H58.364V71.3055H61.3836V72.8458H58.364V76.3644ZM63.3498 76.3644V67.4643H65.2371V74.806H68.847V76.3644H63.3498ZM78.4776 71.9021C78.4776 72.5879 78.3924 73.213 78.222 73.7772C78.0515 74.3372 77.7917 74.8201 77.4428 75.226C77.0979 75.6319 76.6594 75.9443 76.1278 76.1635C75.5962 76.3786 74.9671 76.4861 74.2407 76.4861C73.5142 76.4861 72.8851 76.3786 72.3535 76.1635C71.8219 75.9443 71.3815 75.6319 71.0324 75.226C70.6875 74.8201 70.4298 74.3351 70.2593 73.771C70.0889 73.207 70.0037 72.58 70.0037 71.8899C70.0037 70.9687 70.1538 70.1672 70.4541 69.4853C70.7585 68.7994 71.2253 68.2678 71.8542 67.8903C72.4833 67.513 73.2828 67.3242 74.2529 67.3242C75.2188 67.3242 76.0122 67.513 76.6331 67.8903C77.2581 68.2678 77.7207 68.7994 78.0212 69.4853C78.3254 70.1711 78.4776 70.9769 78.4776 71.9021ZM71.9822 71.9021C71.9822 72.523 72.0593 73.0588 72.2136 73.5093C72.3718 73.9557 72.6174 74.3007 72.95 74.5441C73.2828 74.7836 73.7131 74.9033 74.2407 74.9033C74.7763 74.9033 75.2106 74.7836 75.5434 74.5441C75.8762 74.3007 76.1176 73.9557 76.2679 73.5093C76.422 73.0588 76.4993 72.523 76.4993 71.9021C76.4993 70.9687 76.3247 70.2342 75.9756 69.6984C75.6267 69.1627 75.0523 68.8948 74.2529 68.8948C73.7213 68.8948 73.287 69.0165 72.95 69.2601C72.6174 69.4995 72.3718 69.8446 72.2136 70.295C72.0593 70.7414 71.9822 71.2771 71.9822 71.9021ZM91.2556 67.4643L88.991 76.3644H86.8421L85.6368 71.6891C85.6123 71.5997 85.58 71.4638 85.5394 71.2813C85.4987 71.0986 85.4562 70.8996 85.4115 70.6846C85.367 70.4655 85.3263 70.2605 85.2897 70.0697C85.2574 69.8749 85.235 69.7208 85.2227 69.6072C85.2106 69.7208 85.1864 69.873 85.1498 70.0636C85.1173 70.2544 85.0787 70.4574 85.0342 70.6724C84.9935 70.8875 84.9529 71.0884 84.9123 71.275C84.8717 71.4619 84.8394 71.6039 84.8149 71.7012L83.6156 76.3644H81.4728L79.2021 67.4643H81.0589L82.1973 72.3221C82.2297 72.4683 82.2662 72.6428 82.3069 72.8458C82.3514 73.0487 82.3942 73.2617 82.4347 73.4849C82.4794 73.7041 82.5178 73.9171 82.5503 74.124C82.5869 74.327 82.6132 74.5036 82.6295 74.6537C82.6497 74.4995 82.6761 74.3209 82.7086 74.118C82.741 73.9111 82.7756 73.7021 82.8122 73.491C82.8527 73.2759 82.8932 73.0771 82.9339 72.8944C82.9744 72.7118 83.011 72.5637 83.0435 72.4501L84.3401 67.4643H86.1239L87.4205 72.4501C87.4489 72.5595 87.4813 72.7078 87.5178 72.8944C87.5585 73.0771 87.599 73.2759 87.6395 73.491C87.6802 73.706 87.7168 73.9171 87.7491 74.124C87.7857 74.327 87.8122 74.5036 87.8283 74.6537C87.8567 74.4508 87.8953 74.2053 87.9439 73.9171C87.9968 73.625 88.0515 73.3348 88.1084 73.0466C88.1692 72.7585 88.222 72.5169 88.2667 72.3221L89.399 67.4643H91.2556Z" fill="white"/>
</g>
<defs>
<clipPath id="clip0_188_17315">
<rect width="91.4286" height="80" fill="white"/>
</clipPath>
</defs>
</svg>
