<svg width="32" height="32" viewBox="0 0 32 32" fill="none" xmlns="http://www.w3.org/2000/svg">
<rect width="32" height="32" rx="16" fill="#E5E5E5"/>
<path d="M8.5 22C8.5 19.831 10.444 18.4 12.8421 18.4C15.2402 18.4 17.1842 19.831 17.1842 22M23.5 20C23.5 17.831 21.556 16.4 19.1579 16.4C18.2835 16.4 17.4701 16.5805 16.7895 16.9166M14.8158 14C14.8158 15.1046 13.9321 16 12.8421 16C11.7521 16 10.8684 15.1046 10.8684 14C10.8684 12.8954 11.7521 12 12.8421 12C13.9321 12 14.8158 12.8954 14.8158 14ZM21.1316 12C21.1316 13.1046 20.2479 14 19.1579 14C18.0679 14 17.1842 13.1046 17.1842 12C17.1842 10.8954 18.0679 10 19.1579 10C20.2479 10 21.1316 10.8954 21.1316 12Z" stroke="#585858" stroke-width="1.5" stroke-linecap="round"/>
</svg>
